<?xml version="1.0" encoding="UTF-8" standalone="no"?>
<!DOCTYPE svg PUBLIC "-//W3C//DTD SVG 1.1//EN"
 "http://www.w3.org/Graphics/SVG/1.1/DTD/svg11.dtd">
<!-- Generated by graphviz version 2.36.0 (20140111.2315)
 -->
<!-- Title: models_diagram Pages: 1 -->
<svg width="391pt" height="286pt"
 viewBox="0.00 0.00 391.00 286.00" xmlns="http://www.w3.org/2000/svg" xmlns:xlink="http://www.w3.org/1999/xlink">
<g id="graph0" class="graph" transform="scale(1 1) rotate(0) translate(4 282)">
<title>models_diagram</title>
<polygon fill="none" stroke="none" points="-4,4 -4,-282 387,-282 387,4 -4,4"/>
<!-- _diagram_info -->
<g id="node1" class="node"><title>_diagram_info</title>
<text text-anchor="start" x="7" y="-263.6" font-family="Times,serif" font-size="13.00">Models diagram</text>
<text text-anchor="start" x="7" y="-249.6" font-family="Times,serif" font-size="13.00">Date: Jul 05 2016 &#45; 21:48</text>
<text text-anchor="start" x="7" y="-235.6" font-family="Times,serif" font-size="13.00">Migration version: 20160706022429</text>
<text text-anchor="start" x="7" y="-221.6" font-family="Times,serif" font-size="13.00">Generated by RailRoady 1.5.1</text>
<text text-anchor="start" x="7" y="-207.6" font-family="Times,serif" font-size="13.00">http://railroady.prestonlee.com</text>
</g>
<!-- Operacion -->
<g id="node2" class="node"><title>Operacion</title>
<path fill="none" stroke="black" d="M238.5,-72.5C238.5,-72.5 371.5,-72.5 371.5,-72.5 377.5,-72.5 383.5,-78.5 383.5,-84.5 383.5,-84.5 383.5,-151.5 383.5,-151.5 383.5,-157.5 377.5,-163.5 371.5,-163.5 371.5,-163.5 238.5,-163.5 238.5,-163.5 232.5,-163.5 226.5,-157.5 226.5,-151.5 226.5,-151.5 226.5,-84.5 226.5,-84.5 226.5,-78.5 232.5,-72.5 238.5,-72.5"/>
<text text-anchor="middle" x="305" y="-148.3" font-family="Times,serif" font-size="14.00">Operacion</text>
<polyline fill="none" stroke="black" points="226.5,-140.5 383.5,-140.5 "/>
<text text-anchor="start" x="234.5" y="-125.3" font-family="Times,serif" font-size="14.00">id :integer</text>
<text text-anchor="start" x="234.5" y="-110.3" font-family="Times,serif" font-size="14.00">worker :character varying</text>
<text text-anchor="start" x="234.5" y="-95.3" font-family="Times,serif" font-size="14.00">trabajadore_id :integer</text>
<text text-anchor="start" x="234.5" y="-80.3" font-family="Times,serif" font-size="14.00">inventario_id :integer</text>
</g>
<!-- Inventario -->
<g id="node4" class="node"><title>Inventario</title>
<ellipse fill="none" stroke="black" cx="305" cy="-18" rx="46.1964" ry="18"/>
<text text-anchor="middle" x="305" y="-14.3" font-family="Times,serif" font-size="14.00">Inventario</text>
</g>
<!-- Operacion&#45;&gt;Inventario -->
<g id="edge1" class="edge"><title>Operacion&#45;&gt;Inventario</title>
<path fill="none" stroke="#5d5ce1" d="M305,-64.232C305,-57.4824 305,-50.8286 305,-44.7872"/>
<ellipse fill="none" stroke="#5d5ce1" cx="305" cy="-68.3017" rx="4" ry="4"/>
<ellipse fill="#5d5ce1" stroke="#5d5ce1" cx="305" cy="-40.434" rx="4" ry="4"/>
</g>
<!-- Trabajadore -->
<g id="node3" class="node"><title>Trabajadore</title>
<path fill="none" stroke="black" d="M242.5,-201C242.5,-201 367.5,-201 367.5,-201 373.5,-201 379.5,-207 379.5,-213 379.5,-213 379.5,-265 379.5,-265 379.5,-271 373.5,-277 367.5,-277 367.5,-277 242.5,-277 242.5,-277 236.5,-277 230.5,-271 230.5,-265 230.5,-265 230.5,-213 230.5,-213 230.5,-207 236.5,-201 242.5,-201"/>
<text text-anchor="middle" x="305" y="-261.8" font-family="Times,serif" font-size="14.00">Trabajadore</text>
<polyline fill="none" stroke="black" points="230.5,-254 379.5,-254 "/>
<text text-anchor="start" x="238.5" y="-238.8" font-family="Times,serif" font-size="14.00">id :integer</text>
<text text-anchor="start" x="238.5" y="-223.8" font-family="Times,serif" font-size="14.00">name :character varying</text>
<text text-anchor="start" x="238.5" y="-208.8" font-family="Times,serif" font-size="14.00">email :character varying</text>
</g>
<!-- Trabajadore&#45;&gt;Operacion -->
<g id="edge2" class="edge"><title>Trabajadore&#45;&gt;Operacion</title>
<path fill="none" stroke="#2f1252" d="M305,-192.742C305,-186.455 305,-179.942 305,-173.507"/>
<ellipse fill="none" stroke="#2f1252" cx="305" cy="-197" rx="4" ry="4"/>
<polygon fill="#2f1252" stroke="#2f1252" points="305,-173.504 309.5,-163.504 305,-168.504 305,-163.504 305,-163.504 305,-163.504 305,-168.504 300.5,-163.504 305,-173.504 305,-173.504"/>
</g>
</g>
</svg>
