<?xml version="1.0" encoding="UTF-8" standalone="no"?>
<!DOCTYPE svg PUBLIC "-//W3C//DTD SVG 1.1//EN"
 "http://www.w3.org/Graphics/SVG/1.1/DTD/svg11.dtd">
<!-- Generated by graphviz version 2.36.0 (20140111.2315)
 -->
<!-- Title: models_diagram Pages: 1 -->
<svg width="345pt" height="230pt"
 viewBox="0.00 0.00 345.00 230.00" xmlns="http://www.w3.org/2000/svg" xmlns:xlink="http://www.w3.org/1999/xlink">
<g id="graph0" class="graph" transform="scale(1 1) rotate(0) translate(4 226)">
<title>models_diagram</title>
<polygon fill="none" stroke="none" points="-4,4 -4,-226 341,-226 341,4 -4,4"/>
<!-- _diagram_info -->
<g id="node1" class="node"><title>_diagram_info</title>
<text text-anchor="start" x="7" y="-207.6" font-family="Times,serif" font-size="13.00">Models diagram</text>
<text text-anchor="start" x="7" y="-193.6" font-family="Times,serif" font-size="13.00">Date: Jul 05 2016 &#45; 21:48</text>
<text text-anchor="start" x="7" y="-179.6" font-family="Times,serif" font-size="13.00">Migration version: 20160706022429</text>
<text text-anchor="start" x="7" y="-165.6" font-family="Times,serif" font-size="13.00">Generated by RailRoady 1.5.1</text>
<text text-anchor="start" x="7" y="-151.6" font-family="Times,serif" font-size="13.00">http://railroady.prestonlee.com</text>
</g>
<!-- Operacion -->
<g id="node2" class="node"><title>Operacion</title>
<ellipse fill="none" stroke="black" cx="284" cy="-90" rx="47.169" ry="18"/>
<text text-anchor="middle" x="284" y="-86.3" font-family="Times,serif" font-size="14.00">Operacion</text>
</g>
<!-- Inventario -->
<g id="node4" class="node"><title>Inventario</title>
<ellipse fill="none" stroke="black" cx="284" cy="-18" rx="46.1964" ry="18"/>
<text text-anchor="middle" x="284" y="-14.3" font-family="Times,serif" font-size="14.00">Inventario</text>
</g>
<!-- Operacion&#45;&gt;Inventario -->
<g id="edge1" class="edge"><title>Operacion&#45;&gt;Inventario</title>
<path fill="none" stroke="#2a0492" d="M284,-63.6398C284,-57.348 284,-50.6053 284,-44.3156"/>
<ellipse fill="none" stroke="#2a0492" cx="284" cy="-67.6966" rx="4" ry="4"/>
<ellipse fill="#2a0492" stroke="#2a0492" cx="284" cy="-40.1043" rx="4" ry="4"/>
</g>
<!-- Trabajadore -->
<g id="node3" class="node"><title>Trabajadore</title>
<ellipse fill="none" stroke="black" cx="284" cy="-183" rx="52.9443" ry="18"/>
<text text-anchor="middle" x="284" y="-179.3" font-family="Times,serif" font-size="14.00">Trabajadore</text>
</g>
<!-- Trabajadore&#45;&gt;Operacion -->
<g id="edge2" class="edge"><title>Trabajadore&#45;&gt;Operacion</title>
<path fill="none" stroke="#2c64db" d="M284,-156.729C284,-144.725 284,-130.362 284,-118.129"/>
<ellipse fill="none" stroke="#2c64db" cx="284" cy="-160.884" rx="4" ry="4"/>
<polygon fill="#2c64db" stroke="#2c64db" points="284,-118.04 288.5,-108.04 284,-113.04 284,-108.04 284,-108.04 284,-108.04 284,-113.04 279.5,-108.04 284,-118.04 284,-118.04"/>
</g>
</g>
</svg>
